<svg xmlns="http://www.w3.org/2000/svg" version="1.1" xmlns:xlink="http://www.w3.org/1999/xlink" xmlns:svgjs="http://svgjs.com/svgjs" width="1440" height="560" preserveAspectRatio="none" viewBox="0 0 1440 560"><g mask="url(&quot;#SvgjsMask1025&quot;)" fill="none"><rect width="1440" height="560" x="0" y="0" fill="rgba(44, 44, 44, 1)"></rect><path d="M217.283,536.768C236.468,536.039,253.169,523.418,261.388,506.067C268.608,490.826,262.793,473.792,253.906,459.458C245.608,446.074,233.026,435.342,217.283,434.926C200.85,434.492,186.333,443.796,177.151,457.432C166.534,473.199,158.382,492.693,166.962,509.655C176.18,527.877,196.877,537.544,217.283,536.768" fill="rgba(55, 55, 55, 0.45)" class="triangle-float2"></path><path d="M309.884,228.948C354.474,229.191,400.542,213.086,421.931,173.96C442.668,136.027,429.636,89.93,405.479,54.078C384.265,22.593,347.831,8.823,309.884,7.67C269.319,6.437,226.166,14.169,203.668,47.946C178.939,85.073,177.351,134.279,199.928,172.753C222.256,210.802,265.769,228.708,309.884,228.948" fill="rgba(55, 55, 55, 0.45)" class="triangle-float3"></path><path d="M727.02 180.7 a160.25 160.25 0 1 0 320.5 0 a160.25 160.25 0 1 0 -320.5 0z" fill="rgba(55, 55, 55, 0.45)" class="triangle-float3"></path><path d="M54.082,607.368C96.54,606.234,135.449,581.411,154.24,543.321C171.243,508.855,157.84,469.963,138.148,436.959C119.08,405.001,91.269,376.877,54.082,375.455C14.653,373.947,-20.8,396.738,-41.913,430.072C-64.79,466.191,-76.153,511.336,-55.797,548.933C-34.627,588.032,9.636,608.556,54.082,607.368" fill="rgba(55, 55, 55, 0.45)" class="triangle-float1"></path><path d="M-2.61 109.25 a186.55 186.55 0 1 0 373.1 0 a186.55 186.55 0 1 0 -373.1 0z" fill="rgba(55, 55, 55, 0.45)" class="triangle-float3"></path><path d="M337.82 423.5 a151.45 151.45 0 1 0 302.9 0 a151.45 151.45 0 1 0 -302.9 0z" fill="rgba(55, 55, 55, 0.45)" class="triangle-float2"></path><path d="M1059.16 336.62 a116.53 116.53 0 1 0 233.06 0 a116.53 116.53 0 1 0 -233.06 0z" fill="rgba(55, 55, 55, 0.45)" class="triangle-float1"></path><path d="M533.34 281.02 a151.12 151.12 0 1 0 302.24 0 a151.12 151.12 0 1 0 -302.24 0z" fill="rgba(55, 55, 55, 0.45)" class="triangle-float1"></path><path d="M1218 122.74 a100.87 100.87 0 1 0 201.74 0 a100.87 100.87 0 1 0 -201.74 0z" fill="rgba(55, 55, 55, 0.45)" class="triangle-float2"></path><path d="M315.07 88.43 a125.68 125.68 0 1 0 251.36 0 a125.68 125.68 0 1 0 -251.36 0z" fill="rgba(55, 55, 55, 0.45)" class="triangle-float3"></path><path d="M1058.09 267.69 a123.89 123.89 0 1 0 247.78 0 a123.89 123.89 0 1 0 -247.78 0z" fill="rgba(55, 55, 55, 0.45)" class="triangle-float2"></path><path d="M575.58 388.87 a167.98 167.98 0 1 0 335.96 0 a167.98 167.98 0 1 0 -335.96 0z" fill="rgba(55, 55, 55, 0.45)" class="triangle-float3"></path></g><defs><mask id="SvgjsMask1025"><rect width="1440" height="560" fill="#ffffff"></rect></mask><style>
            @keyframes float1 {
                0%{transform: translate(0, 0)}
                50%{transform: translate(-10px, 0)}
                100%{transform: translate(0, 0)}
            }

            .triangle-float1 {
                animation: float1 5s infinite;
            }

            @keyframes float2 {
                0%{transform: translate(0, 0)}
                50%{transform: translate(-5px, -5px)}
                100%{transform: translate(0, 0)}
            }

            .triangle-float2 {
                animation: float2 4s infinite;
            }

            @keyframes float3 {
                0%{transform: translate(0, 0)}
                50%{transform: translate(0, -10px)}
                100%{transform: translate(0, 0)}
            }

            .triangle-float3 {
                animation: float3 6s infinite;
            }
        </style></defs></svg>