<svg xmlns="http://www.w3.org/2000/svg" version="1.1" xmlns:xlink="http://www.w3.org/1999/xlink" xmlns:svgjs="http://svgjs.com/svgjs" width="1440" height="56n0" preserveAspectRatio="none" viewBox="0 0 1440 560"><g mask="url(&quot;#SvgjsMask1028&quot;)" fill="none"><rect width="1440" height="560" x="0" y="0" fill="#0e2a47"></rect><path d="M692.347,644.5C728.664,646.923,768.234,636.382,786.123,604.684C803.804,573.354,790.448,535.398,771.001,505.132C753.365,477.685,724.955,459.77,692.347,458.739C657.734,457.644,621.307,469.548,604.576,499.868C588.254,529.446,600.476,564.586,618.002,593.466C634.716,621.008,660.201,642.355,692.347,644.5" fill="rgba(28, 83, 142, 0.4)" class="triangle-float2"></path><path d="M926.24 231.09 a172.32 172.32 0 1 0 344.64 0 a172.32 172.32 0 1 0 -344.64 0z" fill="rgba(28, 83, 142, 0.4)" class="triangle-float1"></path><path d="M521.134,212.671C538.534,212.582,554.919,204.504,564.087,189.715C573.784,174.073,576.302,154.316,567.238,138.299C558.053,122.068,539.762,112.917,521.134,113.815C503.879,114.647,490.721,127.41,482.136,142.401C473.616,157.279,469.096,175.166,477.416,190.157C485.941,205.519,503.565,212.761,521.134,212.671" fill="rgba(28, 83, 142, 0.4)" class="triangle-float3"></path><path d="M1281.583,334.735C1310.61,333.562,1332.628,311.788,1347.133,286.617C1361.612,261.491,1368.383,232.047,1355.817,205.912C1341.456,176.044,1314.71,151.247,1281.583,150.287C1247.055,149.286,1215.702,170.874,1199.503,201.382C1184.227,230.151,1189.095,264.571,1206.169,292.311C1222.373,318.637,1250.695,335.983,1281.583,334.735" fill="rgba(28, 83, 142, 0.4)" class="triangle-float1"></path><path d="M614.86 125.78 a162.28 162.28 0 1 0 324.56 0 a162.28 162.28 0 1 0 -324.56 0z" fill="rgba(28, 83, 142, 0.4)" class="triangle-float3"></path><path d="M334.833,293.302C385.14,293.234,439.795,284.832,465.9,241.828C492.743,197.608,479.711,142.244,453.659,97.553C427.829,53.241,386.05,14.238,334.833,16.983C286.659,19.565,260.55,67.563,236.198,109.209C211.488,151.467,180.031,199.035,203.15,242.184C226.984,286.667,284.367,293.37,334.833,293.302" fill="rgba(28, 83, 142, 0.4)" class="triangle-float3"></path><path d="M1372.55,478.338C1400.731,478.778,1430.23,468.65,1443.455,443.762C1456.111,419.946,1444.141,392.632,1430.436,369.404C1417.033,346.688,1398.895,324.835,1372.55,323.584C1344.346,322.244,1318.253,338.873,1304.286,363.413C1290.467,387.694,1291.112,417.586,1305.379,441.606C1319.347,465.122,1345.201,477.911,1372.55,478.338" fill="rgba(28, 83, 142, 0.4)" class="triangle-float2"></path><path d="M994.01 357.35 a117.88 117.88 0 1 0 235.76 0 a117.88 117.88 0 1 0 -235.76 0z" fill="rgba(28, 83, 142, 0.4)" class="triangle-float1"></path><path d="M243.043,722.472C283.199,720.665,314.021,691.747,334.774,657.321C356.414,621.423,371.499,578.543,352.257,541.305C331.7,501.522,287.77,477.614,243.043,479.801C201.453,481.834,171.64,515.053,150.881,551.15C130.201,587.109,116.152,629.744,135.803,666.275C156.295,704.368,199.832,724.417,243.043,722.472" fill="rgba(28, 83, 142, 0.4)" class="triangle-float1"></path><path d="M343.627,398.16C370.973,397.869,397.895,385.715,410.918,361.667C423.431,338.561,416.138,311.294,402.988,288.544C389.852,265.819,369.874,245.068,343.627,245.256C317.617,245.442,298.976,267.005,285.72,289.384C272.118,312.346,261.264,339.57,273.805,363.128C286.92,387.764,315.72,398.457,343.627,398.16" fill="rgba(28, 83, 142, 0.4)" class="triangle-float3"></path><path d="M23.95 310.96 a149.68 149.68 0 1 0 299.36 0 a149.68 149.68 0 1 0 -299.36 0z" fill="rgba(28, 83, 142, 0.4)" class="triangle-float2"></path><path d="M187.12,317.883C226.069,317.094,263.676,303.974,286.088,272.11C312.716,234.253,331.39,185.11,309,144.602C286.129,103.224,234.398,93.1,187.12,93.058C139.748,93.015,88.611,103.396,64.859,144.383C41.06,185.453,53.61,237.465,80.952,276.266C104.419,309.568,146.388,318.708,187.12,317.883" fill="rgba(28, 83, 142, 0.4)" class="triangle-float3"></path></g><defs><mask id="SvgjsMask1028"><rect width="1440" height="560" fill="#ffffff"></rect></mask><style>
            @keyframes float1 {
                0%{transform: translate(0, 0)}
                50%{transform: translate(-10px, 0)}
                100%{transform: translate(0, 0)}
            }

            .triangle-float1 {
                animation: float1 5s infinite;
            }

            @keyframes float2 {
                0%{transform: translate(0, 0)}
                50%{transform: translate(-5px, -5px)}
                100%{transform: translate(0, 0)}
            }

            .triangle-float2 {
                animation: float2 4s infinite;
            }

            @keyframes float3 {
                0%{transform: translate(0, 0)}
                50%{transform: translate(0, -10px)}
                100%{transform: translate(0, 0)}
            }

            .triangle-float3 {
                animation: float3 6s infinite;
            }
        </style></defs></svg>