<svg xmlns="http://www.w3.org/2000/svg" version="1.1" xmlns:xlink="http://www.w3.org/1999/xlink" xmlns:svgjs="http://svgjs.com/svgjs" width="1440" height="560" preserveAspectRatio="none" viewBox="0 0 1440 560"><g mask="url(&quot;#SvgjsMask1000&quot;)" fill="none"><rect width="1440" height="560" x="0" y="0" fill="#0e2a47"></rect><path d="M816.72 584.7C937.53 504.19 874.89 72.05 1084.64 69.48 1294.4 66.91 1470.19 336.05 1620.49 343.88" stroke="rgba(51,121,194,0.58)" stroke-width="2"></path><path d="M529.39 575.3C658.06 571.68 746.93 390.72 1006.66 382.07 1266.39 373.42 1352.81 168.78 1483.93 163.67" stroke="rgba(51,121,194,0.58)" stroke-width="2"></path><path d="M617.85 628.13C775.29 590.84 832.04 173.93 1074.13 169.15 1316.23 164.37 1411.51 302.16 1530.42 303.55" stroke="rgba(51,121,194,0.58)" stroke-width="2"></path><path d="M457.76 605.06C623.98 582.09 717.69 195.81 988.89 194.66 1260.09 193.51 1378.99 382.21 1520.02 385.06" stroke="rgba(51,121,194,0.58)" stroke-width="2"></path><path d="M193.26 591.97C412.57 563.42 533.86 63.73 900.31 60.28 1266.77 56.83 1426.9 205.13 1607.37 205.88" stroke="rgba(51,121,194,0.58)" stroke-width="2"></path></g><defs><mask id="SvgjsMask1000"><rect width="1440" height="560" fill="#ffffff"></rect></mask></defs></svg>