<svg xmlns="http://www.w3.org/2000/svg" version="1.1" xmlns:xlink="http://www.w3.org/1999/xlink" xmlns:svgjs="http://svgjs.com/svgjs" width="1440" height="560" preserveAspectRatio="none" viewBox="0 0 1440 560"><g mask="url(&quot;#SvgjsMask1000&quot;)" fill="none"><rect width="1440" height="560" x="0" y="0" fill="#0e2a47"></rect><path d="M0,381.079C71.73,375.963,137.821,347.454,198.844,309.407C260.557,270.93,313.062,222.027,352.797,161.117C397.747,92.214,448.965,18.414,442.162,-63.573C435.26,-146.759,385.767,-227.569,316.663,-274.39C252.021,-318.187,161.784,-274.782,88.938,-302.895C5.34,-335.157,-42.813,-461.194,-131.334,-447.283C-216.274,-433.935,-227.271,-310.679,-282.244,-244.566C-335.683,-180.298,-426.601,-145.013,-449.509,-64.63C-473.139,18.287,-447.492,109.983,-404.599,184.774C-363.603,256.257,-292.087,303.163,-217.948,339.134C-150.01,372.096,-75.321,386.451,0,381.079" fill="#0b2239"></path><path d="M1440 1005.05C1520.4180000000001 1020.815 1580.567 930.26 1648.416 884.302 1714.425 839.5899999999999 1796.715 810.496 1832.443 739.223 1868.55 667.194 1860.4270000000001 580.404 1839.797 502.51800000000003 1820.578 429.95799999999997 1766.054 376.596 1720.575 316.88 1671.746 252.76600000000002 1643.3220000000001 150.224 1563.43 139.63600000000002 1480.626 128.66199999999998 1425.418 224.437 1354.362 268.345 1304.561 299.119 1249.795 317.949 1208.201 359.145 1163.975 402.948 1125.857 452.623 1108.076 512.276 1088.445 578.136 1068.425 654.437 1102.375 714.188 1136.173 773.672 1226.3899999999999 767.076 1278.223 811.73 1343.2 867.707 1355.838 988.5509999999999 1440 1005.05" fill="#113255"></path></g><defs><mask id="SvgjsMask1000"><rect width="1440" height="560" fill="#ffffff"></rect></mask></defs></svg>