<svg xmlns="http://www.w3.org/2000/svg" version="1.1" xmlns:xlink="http://www.w3.org/1999/xlink" xmlns:svgjs="http://svgjs.com/svgjs" width="1440" height="560" preserveAspectRatio="none" viewBox="0 0 1440 560"><g mask="url(&quot;#SvgjsMask1000&quot;)" fill="none"><rect width="1440" height="560" x="0" y="0" fill="#0e2a47"></rect><path d="M 0,54 C 57.6,95.8 172.8,264.6 288,263 C 403.2,261.4 460.8,57.6 576,46 C 691.2,34.4 748.8,213.2 864,205 C 979.2,196.8 1036.8,-8.6 1152,5 C 1267.2,18.6 1382.4,219.4 1440,273L1440 560L0 560z" fill="#184a7e"></path><path d="M 0,447 C 96,423.2 288,311.6 480,328 C 672,344.4 768,520.8 960,529 C 1152,537.2 1344,401 1440,369L1440 560L0 560z" fill="#2264ab"></path></g><defs><mask id="SvgjsMask1000"><rect width="1440" height="560" fill="#ffffff"></rect></mask></defs></svg>