<svg xmlns="http://www.w3.org/2000/svg" version="1.1" xmlns:xlink="http://www.w3.org/1999/xlink" xmlns:svgjs="http://svgjs.com/svgjs" width="1440" height="560" preserveAspectRatio="none" viewBox="0 0 1440 560"><g mask="url(&quot;#SvgjsMask1000&quot;)" fill="none"><rect width="1440" height="560" x="0" y="0" fill="#0e2a47"></rect><path d="M -88.8801239226388,269 C 7.12,271.6 199.12,307.2 391.1198760773612,282 C 583.12,256.8 679.12,107 871.1198760773611,143 C 1063.12,179 1159.12,453.2 1351.1198760773611,462 C 1543.12,470.8 1813.34,188 1831.1198760773611,187 C 1848.9,186 1518.22,403 1440,457" stroke="rgba(51, 121, 194, 0.58)" stroke-width="2"></path><path d="M -751.2973124972061,456 C -655.3,405 -463.3,214.4 -271.2973124972061,201 C -79.3,187.6 16.7,412 208.70268750279388,389 C 400.7,366 496.7,81.8 688.7026875027939,86 C 880.7,90.2 1018.44,392.6 1168.7026875027939,410 C 1318.96,427.4 1385.74,220.4 1440,173" stroke="rgba(51, 121, 194, 0.58)" stroke-width="2"></path><path d="M -880.3052231386375,481 C -784.31,399.8 -592.31,84.4 -400.3052231386375,75 C -208.31,65.6 -112.31,436.2 79.69477686136253,434 C 271.69,431.8 367.69,89.8 559.6947768613625,64 C 751.69,38.2 863.63,264.4 1039.6947768613625,305 C 1215.76,345.6 1359.94,274.6 1440,267" stroke="rgba(51, 121, 194, 0.58)" stroke-width="2"></path><path d="M -809.7338508493127,473 C -713.73,401.6 -521.73,151 -329.7338508493127,116 C -137.73,81 -41.73,304.6 150.26614915068728,298 C 342.27,291.4 438.27,73.8 630.2661491506873,83 C 822.27,92.2 948.32,324.6 1110.2661491506874,344 C 1272.21,363.4 1374.05,212.8 1440,180" stroke="rgba(51, 121, 194, 0.58)" stroke-width="2"></path></g><defs><mask id="SvgjsMask1000"><rect width="1440" height="560" fill="#ffffff"></rect></mask></defs></svg>